<svg id="etslrNZX3mz1" xmlns="http://www.w3.org/2000/svg" xmlns:xlink="http://www.w3.org/1999/xlink" viewBox="0 0 700 100" shape-rendering="geometricPrecision" text-rendering="geometricPrecision" project-id="9c7b928c0a964ac1b4e3971b54adf245" export-id="3929f7af0a6f4f6d84ac8a1755b0aa11" cached="false"><g transform="translate(.000001 0)"><path d="M634.97328,22.48824c6.279162,11.520982,5.018361,11.50034,5.77035,23.49356.590196,9.412833-.831152,13.012984,0,16.79558" transform="translate(48.52672 0)" fill="none" stroke="#fafafa"/><path d="M288.64542,164.34263c-2.85595-.57119-13.4026-8.28147-14.94024-7.76892-5.05484,1.68495,10.12819,10.23962,14.34263,8.36653c2.11454-.9398,3.47448-13.11683,7.17132-10.15936c6.01127,4.80902-5.59832,9.21556-7.17132,10.15936" transform="matrix(1.467121 0 0 2.169617 259.794302-333.871685)" fill="none" stroke="#fafafa" stroke-width="0.6"/><path d="M294.0239,175.0996c0,14.57915-4.111812,12.329701-6.711112,26.625821-1.91045,10.50746-4.67537,23.135979,0,34.824409" transform="translate(389.255463-152)" fill="none" stroke="#fafafa"/></g><path d="M-48,24.543377c-7.620534.557913,17.129346,1.438661,24.174393,8.069789C-15.593649,40.361471,0.635748,49.320806,7.427669,50c30.58673,11.013368,43.204055,3.005134,73.583205,5.5007c10.756888.88365,57.143592,2.04768,67.381972,0c3.7248-.74496,51.240844,4.07925,56.244214,5.44381c13.62624,3.71625,29.79504,14.59741,9.77527,22.60532-15.17141,6.06856-10.64596-8.81637-1.22191-14.05195c14.26709-7.92616,42.29979-8.27187,58.65164-10.99718c35.61196-5.93533,75.95865-3.81167,111.19373,1.22191c11.93732,1.70533,31.189896.449854,40.323,8.55336c7.039655,6.246057,9.541423,1.160468,18.93959-5.49859c1.938927-1.373824,6.224574-6.209488,6.720505-8.55337c5.575712-26.352075-17.606374-.638764-17.29651,0-3.281799-10.249714-26.136331-19.750309-16.916946,0c14.16075,30.335993,46.650838,17.591958,58.651641,12.83005c9.789748-3.884563,45.78989-9.71444,53.764-7.94241c13.9939,3.10976,23.18857,11.46232,39.71205,7.33146c11.8336-2.9584,63.274221-32.916236,67.090781-42.457646" transform="translate(48 0)" fill="none" stroke="#fafafa"/></svg>
